<?xml version="1.0" encoding="UTF-8"?>
<svg width="128" height="128" viewBox="0 0 128 128" xmlns="http://www.w3.org/2000/svg">
  <defs>
    <linearGradient id="grad" x1="0%" y1="0%" x2="100%" y2="100%">
      <stop offset="0%" style="stop-color:#409EFF;stop-opacity:1" />
      <stop offset="100%" style="stop-color:#67C23A;stop-opacity:1" />
    </linearGradient>
  </defs>
  <g fill="none" fill-rule="evenodd">
    <circle fill="url(#grad)" cx="64" cy="64" r="60"/>
    <path d="M64 30c-5.5 0-10 4.5-10 10v8c0 5.5 4.5 10 10 10s10-4.5 10-10v-8c0-5.5-4.5-10-10-10zm0 36c-9.9 0-18 8.1-18 18v4c0 5.5 4.5 10 10 10h16c5.5 0 10-4.5 10-10v-4c0-9.9-8.1-18-18-18z" fill="#FFF"/>
    <path d="M64 20c-3.3 0-6 2.7-6 6s2.7 6 6 6 6-2.7 6-6-2.7-6-6-6z" fill="#FFF"/>
  </g>
</svg> 